<?xml version="1.0" encoding="UTF-8" standalone="no"?>
<svg
   width="400"
   height="400"
   viewBox="0 0 400 400"
   version="1.1"
   id="svg1"
   sodipodi:docname="favicon.svg"
   inkscape:version="1.4.2 (f4327f4, 2025-05-13)"
   xmlns:inkscape="http://www.inkscape.org/namespaces/inkscape"
   xmlns:sodipodi="http://sodipodi.sourceforge.net/DTD/sodipodi-0.dtd"
   xmlns="http://www.w3.org/2000/svg"
   xmlns:svg="http://www.w3.org/2000/svg">
  <defs
     id="defs1" />
  <sodipodi:namedview
     id="namedview1"
     pagecolor="#ffffff"
     bordercolor="#000000"
     borderopacity="0.25"
     inkscape:showpageshadow="2"
     inkscape:pageopacity="0.0"
     inkscape:pagecheckerboard="0"
     inkscape:deskcolor="#d1d1d1"
     inkscape:zoom="0.68324193"
     inkscape:cx="-65.862469"
     inkscape:cy="293.45389"
     inkscape:window-width="1920"
     inkscape:window-height="991"
     inkscape:window-x="-9"
     inkscape:window-y="-9"
     inkscape:window-maximized="1"
     inkscape:current-layer="g1" />
  <g
     fill="none"
     stroke-width="24"
     stroke="#000"
     id="g1">
    <path
       style="fill:#ffffff;stroke:#ffffff;stroke-width:12.4191;stroke-opacity:1"
       d="m 33.972976,372.35031 -8.01028,-8.02281 24.52305,-24.52713 24.52306,-24.52714 -4.09412,-5.09559 c -21.15273,-26.32694 -33.5708,-56.73005 -36.95516,-90.47722 -0.84067,-8.38275 -0.70223,-26.16694 0.26989,-34.67012 4.36423,-38.17415 20.69568,-72.52467 47.56867,-100.052914 C 109.12891,56.980134 144.90178,39.520073 184.2985,34.948861 c 9.63797,-1.118296 27.61947,-1.118296 37.25744,0 32.72631,3.797243 62.32173,16.15454 87.8899,36.697628 l 5.09559,4.094123 24.52925,-24.525161 24.52923,-24.525162 8.14802,8.148022 8.14802,8.148022 -24.52198,24.526065 -24.52199,24.526064 4.5089,5.616233 c 22.42023,27.926405 35.33444,62.028155 36.96542,97.612355 1.11442,24.3139 -2.69497,48.17953 -11.11088,69.60913 -23.60546,60.10705 -78.02702,101.33559 -142.2468,107.76295 -7.35216,0.73583 -24.79322,0.73779 -32.0828,0.004 -33.23937,-3.34778 -64.35057,-15.98761 -89.962934,-36.55005 l -5.61623,-4.5089 -24.39872,24.39467 c -13.4193,13.41707 -24.51707,24.39467 -24.6617,24.39467 -0.14464,0 -3.8676,-3.61027 -8.27326,-8.02281 z m 190.639514,-24.0492 c 24.24669,-3.68741 46.57079,-13.05847 66.41968,-27.88121 8.57957,-6.40704 22.07954,-19.85957 28.37418,-28.27446 15.13075,-20.22734 24.35355,-42.13789 28.23043,-67.06692 0.9869,-6.34594 1.15828,-9.51522 1.15828,-21.4195 0,-11.90428 -0.17138,-15.07356 -1.15828,-21.4195 -3.11529,-20.03185 -10.23172,-39.43104 -20.52166,-55.94142 -3.91283,-6.27821 -12.02766,-17.07633 -12.83292,-17.07633 -0.80691,0 -205.79224,204.98434 -205.79224,205.79126 0,0.80606 10.79466,8.9189 17.07633,12.83389 19.20453,11.96904 42.23246,19.56448 65.71798,21.67618 6.34894,0.57086 26.36497,-0.16303 33.32822,-1.22199 z M 297.5701,92.059507 c -0.13812,-0.223493 -2.97699,-2.457951 -6.30859,-4.965464 -20.10617,-15.132841 -41.73009,-24.227933 -66.91479,-28.144577 -6.34594,-0.9869 -9.51522,-1.158282 -21.4195,-1.158282 -11.90428,0 -15.07356,0.171382 -21.4195,1.158282 -32.26589,5.017889 -58.91173,18.510654 -81.845564,41.444494 -23.33214,23.33214 -36.77893,50.27821 -41.71927,83.60141 -1.42556,9.61559 -1.28272,31.09095 0.27326,41.08315 4.01571,25.78808 13.68278,48.281 29.57426,68.81216 l 3.75401,4.85004 L 194.68283,195.60328 C 251.40895,138.87771 297.70822,92.283 297.5701,92.059507 Z"
       id="path2" />
  </g>
</svg>
